<svg xmlns="http://www.w3.org/2000/svg" fill="none" viewBox="0 0 24 24" id="Task-List-Clock--Streamline-Streamline-3.0" height="24" width="24">
  <desc>
    Task List Clock Streamline Icon: https://streamlinehq.com
  </desc>
  <path stroke="#ffffff" stroke-linecap="round" stroke-linejoin="round" d="M17.25 23.25a6 6 0 1 0 0 -12 6 6 0 0 0 0 12Z" stroke-width="1.5"></path>
  <path stroke="#ffffff" stroke-linecap="round" stroke-linejoin="round" d="M19.902 17.25H17.25v-2.652" stroke-width="1.5"></path>
  <path stroke="#ffffff" stroke-linecap="round" stroke-linejoin="round" d="M5.25 10.511h5.25" stroke-width="1.5"></path>
  <path stroke="#ffffff" stroke-linecap="round" stroke-linejoin="round" d="M5.25 14.261h3" stroke-width="1.5"></path>
  <path stroke="#ffffff" stroke-linecap="round" stroke-linejoin="round" d="M5.25 18.011h3" stroke-width="1.5"></path>
  <path stroke="#ffffff" stroke-linecap="round" stroke-linejoin="round" d="M9.75 23.25h-7.5a1.5 1.5 0 0 1 -1.5 -1.5V6a1.5 1.5 0 0 1 1.5 -1.5H6a3.75 3.75 0 0 1 7.5 0h3.75a1.5 1.5 0 0 1 1.5 1.5v2.25" stroke-width="1.5"></path>
  <g>
    <path stroke="#8aadf4" d="M9.75 4.511a0.375 0.375 0 0 1 0 -0.75" stroke-width="1.5"></path>
    <path stroke="#8aadf4" d="M9.75 4.511a0.375 0.375 0 0 0 0 -0.75" stroke-width="1.5"></path>
  </g>
</svg>
