<svg xmlns="http://www.w3.org/2000/svg" fill="none" viewBox="0 0 24 24" id="Task-List-Text-1--Streamline-Streamline-3.0" height="24" width="24">
  <desc>
    Task List Text 1 Streamline Icon: https://streamlinehq.com
  </desc>
  <path stroke="#ffffff" stroke-linecap="round" stroke-linejoin="round" d="M7.5 10.51h9" stroke-width="1.5"></path>
  <path stroke="#ffffff" stroke-linecap="round" stroke-linejoin="round" d="M7.5 14.26h9" stroke-width="1.5"></path>
  <path stroke="#ffffff" stroke-linecap="round" stroke-linejoin="round" d="M7.5 18.01h9" stroke-width="1.5"></path>
  <path stroke="#ffffff" stroke-linecap="round" stroke-linejoin="round" d="M15.75 4.5h3.75A1.5 1.5 0 0 1 21 6v15.75a1.5 1.5 0 0 1 -1.5 1.5h-15a1.5 1.5 0 0 1 -1.5 -1.5V6a1.5 1.5 0 0 1 1.5 -1.5h3.75a3.75 3.75 0 0 1 7.5 0v0Z" stroke-width="1.5"></path>
  <path stroke="#ffffff" d="M12 4.511a0.375 0.375 0 0 1 0 -0.75" stroke-width="1.5"></path>
  <path stroke="#ffffff" d="M12 4.511a0.375 0.375 0 0 0 0 -0.75" stroke-width="1.5"></path>
</svg>
